<svg xmlns="http://www.w3.org/2000/svg" viewBox="0 0 820 265" font-family="Inter, Segoe UI, sans-serif">
  <rect width="820" height="265" fill="#f8f9fa" rx="12"/>
  <text x="410" y="26" text-anchor="middle" font-size="14" font-weight="bold" fill="#1a1a2e">Pipeline Flow — 7 Stages</text>

  <!-- ═══ ROW 1 (left → right): Stage 1–4 ═══ -->
  <!-- y=44, height=70, box width=183, gap=12, start x=20 -->

  <rect x="20"  y="44" width="183" height="70" rx="8" fill="#4361ee" stroke="#3a56d4" stroke-width="1.5"/>
  <text x="112" y="69"  text-anchor="middle" font-size="11" font-weight="bold" fill="white">1. Ingest</text>
  <text x="112" y="85"  text-anchor="middle" font-size="9"  fill="#cce0ff">validate format</text>
  <text x="112" y="99"  text-anchor="middle" font-size="9"  fill="#cce0ff">store audio</text>

  <line x1="203" y1="79" x2="213" y2="79" stroke="#bbb" stroke-width="2" marker-end="url(#ar)"/>

  <rect x="215" y="44" width="183" height="70" rx="8" fill="#4361ee" stroke="#3a56d4" stroke-width="1.5"/>
  <text x="307" y="69"  text-anchor="middle" font-size="11" font-weight="bold" fill="white">2. Preprocess</text>
  <text x="307" y="85"  text-anchor="middle" font-size="9"  fill="#cce0ff">ffmpeg · 16 kHz</text>
  <text x="307" y="99"  text-anchor="middle" font-size="9"  fill="#cce0ff">noise reduction</text>

  <line x1="398" y1="79" x2="408" y2="79" stroke="#bbb" stroke-width="2" marker-end="url(#ar)"/>

  <rect x="410" y="44" width="183" height="70" rx="8" fill="#f72585" stroke="#d4157a" stroke-width="1.5"/>
  <text x="502" y="66"  text-anchor="middle" font-size="11" font-weight="bold" fill="white">3. STT + Diarize</text>
  <text x="502" y="82"  text-anchor="middle" font-size="9"  fill="#ffd6eb">WhisperX — transcript</text>
  <text x="502" y="96"  text-anchor="middle" font-size="9"  fill="#ffd6eb">word-level timestamps</text>
  <text x="502" y="108" text-anchor="middle" font-size="9"  fill="#ffd6eb">Pyannote — speaker IDs</text>

  <line x1="593" y1="79" x2="603" y2="79" stroke="#bbb" stroke-width="2" marker-end="url(#ar)"/>

  <rect x="605" y="44" width="183" height="70" rx="8" fill="#7209b7" stroke="#5c0795" stroke-width="1.5"/>
  <text x="697" y="69"  text-anchor="middle" font-size="11" font-weight="bold" fill="white">4. RAG + LLM</text>
  <text x="697" y="85"  text-anchor="middle" font-size="9"  fill="#e8c8ff">FAISS speaker lookup</text>
  <text x="697" y="99"  text-anchor="middle" font-size="9"  fill="#e8c8ff">Qwen2.5-3B via Ollama</text>

  <!-- ═══ Turn: straight down from S4 to S5 ═══ -->
  <line x1="697" y1="114" x2="697" y2="148" stroke="#bbb" stroke-width="2" marker-end="url(#ar)"/>

  <!-- ═══ ROW 2 (right → left): Stage 5–7 ═══ -->
  <!-- y=150, same x columns as row 1, flow reversed -->

  <rect x="605" y="150" width="183" height="70" rx="8" fill="#7209b7" stroke="#5c0795" stroke-width="1.5"/>
  <text x="697" y="172" text-anchor="middle" font-size="11" font-weight="bold" fill="white">5. Guardrails</text>
  <text x="697" y="188" text-anchor="middle" font-size="9"  fill="#e8c8ff">schema · hallucination</text>
  <text x="697" y="202" text-anchor="middle" font-size="9"  fill="#e8c8ff">PII · jailbreak · retry ×3</text>

  <line x1="605" y1="185" x2="595" y2="185" stroke="#bbb" stroke-width="2" marker-end="url(#ar)"/>

  <rect x="410" y="150" width="183" height="70" rx="8" fill="#f72585" stroke="#d4157a" stroke-width="1.5"/>
  <text x="502" y="172" text-anchor="middle" font-size="11" font-weight="bold" fill="white">6. Assignment</text>
  <text x="502" y="188" text-anchor="middle" font-size="9"  fill="#ffd6eb">exact → fuzzy match</text>
  <text x="502" y="202" text-anchor="middle" font-size="9"  fill="#ffd6eb">confidence score</text>

  <line x1="410" y1="185" x2="400" y2="185" stroke="#bbb" stroke-width="2" marker-end="url(#ar)"/>

  <!-- Stage 7 spans 2 columns to balance the row -->
  <rect x="20"  y="150" width="378" height="70" rx="8" fill="#06d6a0" stroke="#05b888" stroke-width="1.5"/>
  <text x="209" y="179" text-anchor="middle" font-size="11" font-weight="bold" fill="white">7. Emit</text>
  <text x="209" y="196" text-anchor="middle" font-size="9"  fill="#d0fff5">MeetingSummary JSON → PostgreSQL</text>
  <text x="209" y="210" text-anchor="middle" font-size="9"  fill="#d0fff5">metrics → Prometheus · source_turn_ids</text>

  <defs>
    <marker id="ar" markerWidth="8" markerHeight="8" refX="6" refY="3" orient="auto">
      <path d="M0,0 L0,6 L8,3 z" fill="#bbb"/>
    </marker>
  </defs>
</svg>
